<svg xmlns="http://www.w3.org/2000/svg" width="400" height="400" fill="none" viewBox="0 0 400 400"><path fill="#335AE0" d="M266.287 136.525L219.25 109.365C213.397 105.986 206.758 104.207 200 104.207C193.242 104.207 186.603 105.986 180.75 109.365L133.712 136.525C127.861 139.904 123.001 144.763 119.622 150.614C116.243 156.465 114.464 163.103 114.462 169.86V229.97C114.464 236.727 116.243 243.365 119.622 249.216C123.001 255.068 127.861 259.927 133.712 263.305L180.75 290.468C186.603 293.847 193.242 295.626 200 295.626C206.758 295.626 213.397 293.847 219.25 290.468L266.29 263.305C272.142 259.927 277.001 255.068 280.38 249.216C283.759 243.365 285.539 236.727 285.54 229.97V169.86C285.539 163.103 283.759 156.465 280.379 150.614C277 144.762 272.14 139.903 266.287 136.525V136.525Z"/><path fill="#1E357F" d="M285.535 176.89V231.21C285.534 237.967 283.754 244.605 280.375 250.456C276.996 256.308 272.137 261.167 266.285 264.545L219.25 291.708C213.397 295.087 206.758 296.866 200 296.866C193.242 296.866 186.603 295.087 180.75 291.708L133.712 264.545C127.861 261.167 123.001 256.308 119.622 250.456C116.243 244.605 114.464 237.967 114.462 231.21V176.89C114.464 170.133 116.243 163.495 119.622 157.644C123.001 151.793 127.861 146.934 133.712 143.555L180.75 116.395C186.603 113.016 193.242 111.237 200 111.237C206.758 111.237 213.397 113.016 219.25 116.395L266.29 143.555C272.141 146.934 276.999 151.794 280.377 157.645C283.755 163.496 285.534 170.134 285.535 176.89Z"/><path fill="#589BF0" d="M285.535 169.86V224.18C285.534 230.937 283.754 237.575 280.375 243.426C276.996 249.277 272.137 254.137 266.285 257.515L219.25 284.678C213.397 288.057 206.758 289.836 200 289.836C193.242 289.836 186.603 288.057 180.75 284.678L133.712 257.515C127.861 254.137 123.001 249.277 119.622 243.426C116.243 237.575 114.464 230.937 114.462 224.18V169.86C114.464 163.103 116.243 156.465 119.622 150.614C123.001 144.763 127.861 139.904 133.712 136.525L180.75 109.365C186.603 105.986 193.242 104.207 200 104.207C206.758 104.207 213.397 105.986 219.25 109.365L266.287 136.525C272.139 139.904 276.998 144.763 280.376 150.614C283.755 156.466 285.534 163.103 285.535 169.86V169.86Z"/><path fill="#A3DDF7" d="M285.535 169.86V192.728H114.465V169.86C114.466 163.103 116.246 156.465 119.625 150.614C123.004 144.763 127.863 139.904 133.715 136.525L180.75 109.365C186.603 105.986 193.242 104.207 200 104.207C206.758 104.207 213.397 105.986 219.25 109.365L266.287 136.525C272.139 139.904 276.998 144.763 280.376 150.614C283.755 156.466 285.534 163.103 285.535 169.86V169.86Z"/><path fill="#7CC6FC" d="M200 272.462C196.292 272.461 192.649 271.485 189.437 269.632L142.397 242.472C139.19 240.614 136.527 237.947 134.673 234.737C132.82 231.527 131.841 227.887 131.835 224.18V169.862C131.841 166.155 132.819 162.515 134.673 159.304C136.526 156.094 139.19 153.426 142.397 151.567L189.437 124.407C192.649 122.554 196.292 121.578 200 121.578C203.708 121.578 207.351 122.554 210.562 124.407L257.602 151.567C260.81 153.426 263.474 156.094 265.327 159.304C267.181 162.515 268.159 166.155 268.165 169.862V224.18C268.159 227.887 267.18 231.527 265.326 234.738C263.473 237.948 260.81 240.616 257.602 242.475L210.562 269.632C207.351 271.485 203.708 272.461 200 272.462V272.462Z"/><g style="mix-blend-mode:screen"><g style="mix-blend-mode:screen"><path fill="#fff" d="M235.835 139C242.45 142.75 250.885 147.565 257.457 151.355C263.652 154.79 267.847 161.508 268.207 168.583C268.285 169.713 268.207 171.277 268.235 172.417C268.235 174.9 268.185 181.36 268.17 183.917C268.155 181.32 268.115 174.917 268.107 172.417V170.503C268.332 162.828 264.077 155.278 257.357 151.548C250.785 147.75 242.37 142.855 235.835 139Z"/></g></g><g style="mix-blend-mode:screen"><g style="mix-blend-mode:screen"><path fill="#fff" d="M160.87 253.14C155.697 250.198 148.152 245.89 143.022 242.928C136.917 239.7 132.56 233.4 131.857 226.5C131.607 224.102 131.795 220.702 131.747 218.27C131.747 214.18 131.792 205.912 131.835 201.82C131.897 207.77 131.915 216.46 131.932 222.382C131.487 230.85 135.577 238.717 143.105 242.777C148.215 245.742 155.757 250.125 160.87 253.13V253.14Z"/></g></g><path fill="#3660B9" d="M264.112 169.86V224.18C264.108 227.176 263.316 230.118 261.818 232.713C260.32 235.307 258.167 237.463 255.575 238.965L208.535 266.123C205.94 267.621 202.996 268.41 200 268.41C197.004 268.41 194.06 267.621 191.465 266.123L144.425 238.963C141.833 237.461 139.68 235.306 138.181 232.712C136.683 230.118 135.892 227.176 135.888 224.18V169.86C135.892 166.864 136.683 163.922 138.181 161.328C139.68 158.734 141.833 156.579 144.425 155.078L191.465 127.918C194.06 126.419 197.004 125.63 200 125.63C202.996 125.63 205.94 126.419 208.535 127.918L255.575 155.078C258.167 156.579 260.32 158.734 261.819 161.328C263.317 163.922 264.108 166.864 264.112 169.86V169.86Z"/><path fill="#65AEFB" d="M264.112 174.25V224.18C264.108 227.176 263.316 230.118 261.818 232.713C260.32 235.307 258.167 237.463 255.575 238.965L208.535 266.123C205.94 267.621 202.996 268.41 200 268.41C197.004 268.41 194.06 267.621 191.465 266.123L144.425 238.963C141.833 237.461 139.68 235.306 138.181 232.712C136.683 230.118 135.892 227.176 135.888 224.18V174.25C135.892 171.254 136.683 168.312 138.181 165.717C139.679 163.122 141.832 160.967 144.425 159.465L191.465 132.308C194.06 130.809 197.004 130.02 200 130.02C202.996 130.02 205.94 130.809 208.535 132.308L255.575 159.465C258.168 160.967 260.321 163.122 261.819 165.717C263.317 168.312 264.108 171.254 264.112 174.25V174.25Z"/><path fill="#4377D7" d="M240.95 173.613C240.017 171.975 238.665 170.615 237.033 169.673C235.401 168.73 233.547 168.239 231.663 168.25H168.337C166.455 168.25 164.606 168.746 162.976 169.687C161.346 170.629 159.993 171.982 159.052 173.612C158.11 175.242 157.615 177.091 157.615 178.973C157.614 180.856 158.109 182.705 159.05 184.335L196.865 249.835L196.902 249.888C196.96 249.985 197.027 250.085 197.092 250.178C197.117 250.205 197.14 250.238 197.163 250.268C197.25 250.379 197.343 250.486 197.443 250.588L197.465 250.605C197.559 250.698 197.659 250.785 197.762 250.868L197.857 250.938C197.947 251.005 198.04 251.065 198.135 251.125L198.22 251.173C198.345 251.246 198.476 251.312 198.61 251.368V251.368C198.741 251.421 198.874 251.467 199.01 251.505L199.115 251.533C199.225 251.558 199.335 251.583 199.445 251.598L199.56 251.615C199.85 251.655 200.145 251.655 200.435 251.615L200.55 251.598C200.66 251.583 200.77 251.558 200.88 251.533L200.985 251.505C201.121 251.467 201.254 251.421 201.385 251.368V251.368C201.519 251.311 201.649 251.246 201.775 251.173C201.805 251.158 201.83 251.138 201.86 251.125C201.955 251.065 202.047 251.005 202.135 250.938C202.17 250.915 202.2 250.893 202.232 250.868C202.336 250.785 202.436 250.698 202.53 250.605C202.538 250.601 202.545 250.595 202.55 250.588C202.65 250.487 202.744 250.381 202.833 250.27C202.854 250.238 202.877 250.207 202.902 250.178C202.967 250.083 203.035 249.985 203.092 249.888L203.13 249.835L240.945 184.335C241.897 182.709 242.4 180.859 242.4 178.974C242.401 177.09 241.901 175.239 240.95 173.613V173.613ZM196.383 234.52L165.318 180.718C165.015 180.188 164.856 179.588 164.858 178.978C164.86 178.368 165.022 177.769 165.327 177.24C165.633 176.712 166.072 176.274 166.6 175.968C167.128 175.663 167.727 175.501 168.337 175.5H196.383V234.52ZM234.682 180.718L203.617 234.52V175.5H231.663C232.274 175.5 232.876 175.661 233.406 175.967C233.936 176.274 234.376 176.714 234.682 177.244C234.988 177.774 235.149 178.375 235.149 178.987C235.149 179.599 234.988 180.2 234.682 180.73V180.718Z"/><path fill="#fff" d="M200 247.555C199.365 247.555 198.741 247.389 198.191 247.072C197.641 246.755 197.184 246.299 196.865 245.75L159.05 180.25C158.109 178.62 157.614 176.771 157.614 174.889C157.614 173.007 158.11 171.158 159.051 169.528C159.993 167.898 161.346 166.544 162.976 165.604C164.606 164.663 166.455 164.167 168.338 164.167H231.663C233.545 164.167 235.394 164.663 237.024 165.604C238.654 166.544 240.007 167.898 240.949 169.528C241.89 171.158 242.386 173.007 242.386 174.889C242.386 176.771 241.891 178.62 240.95 180.25L203.135 245.75C202.816 246.299 202.359 246.755 201.809 247.072C201.259 247.389 200.635 247.555 200 247.555V247.555ZM168.338 171.402C167.726 171.402 167.124 171.563 166.594 171.869C166.064 172.174 165.624 172.614 165.318 173.144C165.012 173.674 164.851 174.275 164.851 174.887C164.851 175.499 165.012 176.1 165.318 176.63L200 236.7L234.682 176.63C234.988 176.1 235.149 175.499 235.149 174.887C235.149 174.275 234.988 173.674 234.682 173.144C234.376 172.614 233.936 172.174 233.406 171.869C232.876 171.563 232.274 171.402 231.663 171.402H168.338Z"/><path fill="#fff" d="M200 247.555C199.525 247.555 199.054 247.461 198.616 247.28C198.177 247.098 197.778 246.831 197.442 246.496C197.106 246.16 196.84 245.761 196.658 245.322C196.476 244.883 196.382 244.413 196.382 243.938V167.783C196.382 166.823 196.764 165.903 197.442 165.225C198.12 164.546 199.041 164.165 200 164.165C200.959 164.165 201.879 164.546 202.558 165.225C203.236 165.903 203.617 166.823 203.617 167.783V243.938C203.617 244.413 203.524 244.883 203.342 245.322C203.16 245.761 202.894 246.16 202.558 246.496C202.222 246.831 201.823 247.098 201.384 247.28C200.945 247.461 200.475 247.555 200 247.555V247.555Z"/></svg>