<svg xmlns="http://www.w3.org/2000/svg" width="114" height="19" fill="none" viewBox="0 0 114 19"><path fill="#F8FAFD" d="M11.04 18H6.336C6.16 18 6.008 17.936 5.88 17.808C5.752 17.68 5.688 17.528 5.688 17.352V12.624L0.288 1.944C0.256 1.88 0.24 1.792 0.24 1.68C0.24 1.568 0.288 1.464 0.384 1.368C0.496 1.256 0.624 1.2 0.768 1.2H5.28C5.76 1.2 6.096 1.4 6.288 1.8L8.688 6.624L11.088 1.8C11.28 1.4 11.616 1.2 12.096 1.2H16.608C16.752 1.2 16.872 1.256 16.968 1.368C17.08 1.464 17.136 1.568 17.136 1.68C17.136 1.792 17.12 1.88 17.088 1.944L11.688 12.624V17.352C11.688 17.528 11.624 17.68 11.496 17.808C11.368 17.936 11.216 18 11.04 18ZM20.6312 2.736C22.1032 1.552 24.0472 0.959999 26.4632 0.959999C28.8792 0.959999 30.8152 1.56 32.2712 2.76C33.7432 3.944 34.4792 5.616 34.4792 7.776V11.52C34.4792 13.712 33.7512 15.384 32.2952 16.536C30.8552 17.672 28.9112 18.24 26.4632 18.24C24.0152 18.24 22.0632 17.672 20.6072 16.536C19.1672 15.384 18.4472 13.712 18.4472 11.52V7.776C18.4472 5.6 19.1752 3.92 20.6312 2.736ZM25.1672 13.08C25.4872 13.4 25.9192 13.56 26.4632 13.56C27.0072 13.56 27.4392 13.4 27.7592 13.08C28.0792 12.76 28.2392 12.272 28.2392 11.616V7.584C28.2392 6.944 28.0792 6.464 27.7592 6.144C27.4392 5.808 27.0072 5.64 26.4632 5.64C25.9192 5.64 25.4872 5.808 25.1672 6.144C24.8472 6.464 24.6872 6.944 24.6872 7.584V11.616C24.6872 12.272 24.8472 12.76 25.1672 13.08ZM47.0747 1.2H51.7787C51.9547 1.2 52.1067 1.264 52.2347 1.392C52.3627 1.52 52.4267 1.672 52.4267 1.848V11.496C52.4267 13.736 51.7307 15.424 50.3387 16.56C48.9467 17.68 47.0507 18.24 44.6507 18.24C42.2667 18.24 40.3707 17.68 38.9627 16.56C37.5707 15.44 36.8747 13.752 36.8747 11.496V1.848C36.8747 1.672 36.9387 1.52 37.0667 1.392C37.1947 1.264 37.3467 1.2 37.5227 1.2H42.2267C42.4027 1.2 42.5547 1.264 42.6827 1.392C42.8107 1.52 42.8747 1.672 42.8747 1.848V11.568C42.8747 12.8 43.4667 13.416 44.6507 13.416C45.8347 13.416 46.4267 12.8 46.4267 11.568V1.848C46.4267 1.672 46.4907 1.52 46.6187 1.392C46.7467 1.264 46.8987 1.2 47.0747 1.2ZM55.1102 1.2H69.1742C69.3502 1.2 69.5022 1.264 69.6302 1.392C69.7582 1.52 69.8222 1.672 69.8222 1.848V5.712C69.8222 5.888 69.7582 6.04 69.6302 6.168C69.5022 6.296 69.3502 6.36 69.1742 6.36H65.1902V17.352C65.1902 17.528 65.1262 17.68 64.9982 17.808C64.8702 17.936 64.7182 18 64.5422 18H59.7422C59.5662 18 59.4142 17.936 59.2862 17.808C59.1582 17.68 59.0942 17.528 59.0942 17.352V6.36H55.1102C54.9342 6.36 54.7822 6.296 54.6542 6.168C54.5262 6.04 54.4622 5.888 54.4622 5.712V1.848C54.4622 1.672 54.5262 1.52 54.6542 1.392C54.7822 1.264 54.9342 1.2 55.1102 1.2ZM73.8109 2.736C75.2829 1.552 77.2269 0.959999 79.6429 0.959999C82.0589 0.959999 83.9949 1.56 85.4509 2.76C86.9229 3.944 87.6589 5.616 87.6589 7.776V11.52C87.6589 13.712 86.9309 15.384 85.4749 16.536C84.0349 17.672 82.0909 18.24 79.6429 18.24C77.1949 18.24 75.2429 17.672 73.7869 16.536C72.3469 15.384 71.6269 13.712 71.6269 11.52V7.776C71.6269 5.6 72.3549 3.92 73.8109 2.736ZM78.3469 13.08C78.6669 13.4 79.0989 13.56 79.6429 13.56C80.1869 13.56 80.6189 13.4 80.9389 13.08C81.2589 12.76 81.4189 12.272 81.4189 11.616V7.584C81.4189 6.944 81.2589 6.464 80.9389 6.144C80.6189 5.808 80.1869 5.64 79.6429 5.64C79.0989 5.64 78.6669 5.808 78.3469 6.144C78.0269 6.464 77.8669 6.944 77.8669 7.584V11.616C77.8669 12.272 78.0269 12.76 78.3469 13.08ZM100.422 1.2H104.766C104.942 1.2 105.094 1.264 105.222 1.392C105.35 1.52 105.414 1.672 105.414 1.848V17.352C105.414 17.528 105.35 17.68 105.222 17.808C105.094 17.936 104.942 18 104.766 18H100.974C100.558 18 100.23 17.816 99.9904 17.448L95.9344 11.328V17.352C95.9344 17.528 95.8704 17.68 95.7424 17.808C95.6144 17.936 95.4624 18 95.2864 18H90.9424C90.7664 18 90.6144 17.936 90.4864 17.808C90.3584 17.68 90.2944 17.528 90.2944 17.352V1.848C90.2944 1.672 90.3584 1.52 90.4864 1.392C90.6144 1.264 90.7664 1.2 90.9424 1.2H94.7344C95.1824 1.2 95.5104 1.384 95.7184 1.752L99.7744 8.4V1.848C99.7744 1.672 99.8384 1.52 99.9664 1.392C100.094 1.264 100.246 1.2 100.422 1.2Z"/><path fill="#06F" d="M109.057 12.528H113.233C113.409 12.528 113.561 12.592 113.689 12.72C113.817 12.848 113.881 13 113.881 13.176V17.352C113.881 17.528 113.817 17.68 113.689 17.808C113.561 17.936 113.409 18 113.233 18H109.057C108.881 18 108.729 17.936 108.601 17.808C108.473 17.68 108.409 17.528 108.409 17.352V13.176C108.409 13 108.473 12.848 108.601 12.72C108.729 12.592 108.881 12.528 109.057 12.528Z"/></svg>